<?xml version="1.0" encoding="UTF-8" standalone="no"?>
<svg
   id="Layer_2"
   data-name="Layer 2"
   viewBox="0 0 165.08999 156.74"
   version="1.1"
   sodipodi:docname="Lorgar_LOGO_violet-bg-web.svg"
   width="165.09"
   height="156.74001"
   inkscape:version="1.4.2 (f4327f4, 2025-05-13)"
   xmlns:inkscape="http://www.inkscape.org/namespaces/inkscape"
   xmlns:sodipodi="http://sodipodi.sourceforge.net/DTD/sodipodi-0.dtd"
   xmlns="http://www.w3.org/2000/svg"
   xmlns:svg="http://www.w3.org/2000/svg">
  <sodipodi:namedview
     id="namedview15"
     pagecolor="#ffffff"
     bordercolor="#000000"
     borderopacity="0.25"
     inkscape:showpageshadow="2"
     inkscape:pageopacity="0.0"
     inkscape:pagecheckerboard="0"
     inkscape:deskcolor="#d1d1d1"
     inkscape:zoom="1.5441332"
     inkscape:cx="274.58771"
     inkscape:cy="78.361117"
     inkscape:window-width="1920"
     inkscape:window-height="1002"
     inkscape:window-x="-8"
     inkscape:window-y="-8"
     inkscape:window-maximized="1"
     inkscape:current-layer="g14" />
  <defs
     id="defs1">
    <style
       id="style1">
      .cls-1 {
        fill: #fff;
        stroke: #000;
        stroke-miterlimit: 10;
      }

      .cls-2 {
        fill: #90f;
      }
    </style>
  </defs>
  <g
     id="g15"
     data-name="Layer 1"
     transform="translate(-168.03,-180.67)">
    <g
       id="Layer_1-2"
       data-name="Layer 1-2">
      <g
         id="g14">
        <path
           class="cls-2"
           d="m 300.4,235.19 h 6.47 v -5.11 h -9.03 c -10.05,-17.89 -29.3,-30.15 -51.45,-30.15 -14.65,0 -28.11,5.45 -38.51,14.31 h -14.65 v 4.94 h 9.54 c -6.13,6.65 -10.73,14.65 -13.12,23.68 h 10.39 v 8.52 h -12.26 c -0.34,2.55 -0.51,5.11 -0.51,7.67 0,32.71 26.41,59.12 59.12,59.12 32.71,0 59.12,-26.41 59.12,-59.12 0,-8.52 -1.87,-16.52 -5.11,-23.85 m 32.71,-0.01 h -11.92 c 2.39,7.5 3.58,15.5 3.58,23.85 0,14.99 -4.26,29.13 -11.58,41.06 h 5.45 v 7.16 h -10.57 c -14.14,18.4 -36.46,30.15 -61.67,30.15 -43.28,0 -78.37,-35.1 -78.37,-78.37 0,-2.55 0.17,-5.11 0.34,-7.67 h 12.78 v -8.52 h -11.42 c 1.71,-8.52 4.94,-16.36 9.2,-23.68 h -5.45 v -4.94 h 8.69 c 14.14,-20.27 37.65,-33.56 64.23,-33.56 33.05,0 61.33,20.44 72.92,49.41 h 13.8 v 5.11 0 z m -52.81,47.54 c 8.18,-8.18 8.18,-21.47 0,-29.65 l -29.65,29.65 c 8.18,8.18 21.47,8.18 29.65,0 m -67.81,-29.65 29.65,29.65 c -8.18,8.18 -21.47,8.18 -29.65,0 -8.18,-8.18 -8.18,-21.47 0,-29.65"
           id="path14" />
      </g>
    </g>
  </g>
</svg>
