<?xml version="1.0" encoding="UTF-8" standalone="no"?>
<svg
   width="492.08942pt"
   height="493pt"
   viewBox="0 0 492.08942 493"
   version="1.1"
   id="svg12"
   sodipodi:docname="f88s2krc0_898846d0.svg"
   inkscape:version="1.4.2 (f4327f4, 2025-05-13)"
   xmlns:inkscape="http://www.inkscape.org/namespaces/inkscape"
   xmlns:sodipodi="http://sodipodi.sourceforge.net/DTD/sodipodi-0.dtd"
   xmlns="http://www.w3.org/2000/svg"
   xmlns:svg="http://www.w3.org/2000/svg">
  <defs
     id="defs12" />
  <sodipodi:namedview
     id="namedview12"
     pagecolor="#ffffff"
     bordercolor="#000000"
     borderopacity="0.25"
     inkscape:showpageshadow="2"
     inkscape:pageopacity="0.0"
     inkscape:pagecheckerboard="0"
     inkscape:deskcolor="#d1d1d1"
     inkscape:document-units="pt"
     inkscape:zoom="0.1305247"
     inkscape:cx="873.39791"
     inkscape:cy="566.9425"
     inkscape:window-width="1920"
     inkscape:window-height="1002"
     inkscape:window-x="-8"
     inkscape:window-y="-8"
     inkscape:window-maximized="1"
     inkscape:current-layer="#323e47fc" />
  <g
     id="#323e47fc">
    <path
       fill="#323e47"
       opacity="1"
       d="m 226.42,0 h 39.16 c 69.56,3.51 138.44,21.77 200.06,54.41 9.88,5.92 23.07,10.38 25.97,22.96 1.5,20.55 -0.82,41.09 -2.83,61.53 -7.29,60.69 -26.82,119.82 -56.72,173.11 -40,71.35 -98.95,131.92 -169.11,173.94 -4.59,3.44 -9.98,5.34 -15.38,7.05 h -3.15 c -9.7,-2.77 -18,-8.66 -26.43,-13.98 -20.16,-12.35 -38.67,-27.17 -56.82,-42.25 7.21,-33.68 14.24,-67.41 21.41,-101.1 0.67,-4.15 2.82,-8.64 7.07,-10.04 35.56,-2.98 72.54,4.07 107.3,-6.74 19.58,-6.52 37.65,-18.37 49.51,-35.47 10.43,-14.65 17.13,-31.81 20.53,-49.41 3.42,-16.82 7.28,-33.54 10.6,-50.37 3.39,-17.34 3.88,-35.7 -2.92,-52.33 C 368.31,114.49 354.01,101.36 337.64,94.43 324.55,88.98 310.15,86.63 296,86.97 254.32,87.07 212.65,86.93 170.97,87.02 153.39,88.54 139.39,103.08 136.06,120 120.74,198.27 103.43,276.14 86.7,354.12 40.31,289.39 11.09,212.35 2.78,133.11 1.1,123.67 1.95,113.79 0,104.49 V 78.42 C 2.75,65.37 16.06,60.27 26.36,54.41 87.97,21.76 156.86,3.51 226.42,0 m -9.07,23.58 C 167.88,26.66 118.83,37.9 73.15,57.2 55.59,64.73 38.05,72.62 22.03,83.07 c 1.37,10.92 0.44,22 1.81,32.93 4.52,62.03 21.91,123.83 52.03,177.96 12.09,-53.95 23.04,-108.22 34.7,-162.3 3.33,-16.88 6.96,-34.8 19.62,-47.47 12.64,-14.14 32.04,-21.25 50.81,-20.21 38.33,0.04 76.67,0.03 115.01,0 18.07,0.83 36.45,3.2 52.99,11.02 19.63,8.59 36.21,24.39 44.92,44.03 11.33,24.28 9.54,52.32 3.89,77.88 -6.61,27.67 -9.58,56.66 -22.47,82.4 -8.02,13.73 -16.67,27.78 -29.51,37.54 -14.22,12.58 -31.83,21.03 -50.18,25.64 -30.16,8.09 -61.66,3.09 -92.43,4.6 -6.08,26.56 -11.1,53.36 -17.21,79.91 0.06,0.42 0.17,1.27 0.23,1.7 10,6.97 18.89,15.46 29.41,21.68 9.58,7.34 20.18,13.16 30.34,19.62 77.68,-45.17 141.59,-113.64 180.02,-195 22.82,-46.96 36.56,-98.16 41.76,-150.07 C 469.4,111 468.89,96.99 470.02,83.05 460.09,76.67 449.61,71.07 438.87,66.16 386.74,41.17 329.69,26.64 272.01,23.03 253.8,23.3 235.51,22.28 217.35,23.58 Z"
       id="path1" />
    <path
       fill="#323e47"
       opacity="1"
       d="m 174.3,120.29 c 41.55,-0.69 83.14,-0.08 124.71,-0.3 14.09,0.21 29.56,3.76 39.27,14.74 10.3,13.07 9.46,30.94 5.74,46.27 -3.66,17.34 -7.39,34.66 -11.02,52 -4.49,17.54 -13.15,35.2 -28.63,45.42 -11.43,8.18 -25.58,11.32 -39.36,12.52 -35.61,0.23 -71.23,-0.16 -106.83,0.18 l -0.47,0.58 c -8.38,38.96 -16.52,78.3 -24.93,117.38 -7.28,-6.07 -12.84,-13.77 -19.62,-20.31 18.39,-86.79 36.81,-173.63 55.29,-260.43 0.66,-3.38 2.28,-6.96 5.85,-8.05 m 14.91,22.8 c -8.77,41.61 -17.61,83.25 -26.25,124.87 35.35,0.11 70.7,-0.01 106.05,0.06 13.33,0.19 26.75,-6.76 33.93,-18.07 9.91,-15.1 10.52,-33.97 14.87,-51.04 2.55,-14.08 8.38,-29.21 2.5,-43.22 -3.19,-8.25 -12.38,-11.24 -20.3,-12.69 -36.93,0.05 -73.86,-0.12 -110.8,0.09 z"
       id="path2" />
  </g>
</svg>
