<?xml version="1.0" encoding="UTF-8"?>
<svg width="19.480097" height="20.26" viewBox="0 0 19.480097 20.26" xmlns="http://www.w3.org/2000/svg">
    <g transform="translate(0,-0.26)">
        <path fill="#363f48" fill-rule="evenodd"
              d="M 19.47,5.73 C 19.47,3.68 18.71,2.14 17.19,1.21 16.08,0.54 14.18,0.26 12.45,0.26 H 0.98 C 0.33,0.26 0,0.7 0,1.58 v 17.61 c 0,0.89 0.33,1.33 0.98,1.33 H 1.8 c 0.66,0 0.99,-0.44 0.99,-1.33 v -5.03 h 9.67 c 1.73,0 3.631207,-0.278004 4.74,-0.95 1.53121,-0.928006 2.29,-2.1 2.28,-4.15 v -3.31 0 z
         m -6.85,-2.5 c 1.13,0 2.45,0.08 3,0.37 0.68,0.36 1.04,1.17 1.09,2.06 v 3.25 c 0,1 -0.36,1.48 -1.09,1.87 -0.54,0.29 -1.86,0.37 -3,0.37 H 2.79 V 3.23 Z"/>
    </g>
</svg>
